<?xml version="1.0" encoding="utf-8"?>
<!-- Generator: Adobe Illustrator 25.2.3, SVG Export Plug-In . SVG Version: 6.00 Build 0)  -->
<svg version="1.1" id="Layer_1" xmlns="http://www.w3.org/2000/svg" xmlns:xlink="http://www.w3.org/1999/xlink" x="0px" y="0px"
	 viewBox="0 0 275.42 128.62" style="enable-background:new 0 0 275.42 128.62;" xml:space="preserve">
<style type="text/css">
	.st0{fill:#FFFFFF;}
	.st1{fill:#EE3124;}
</style>
<g>
	<g>
		<path class="st0" d="M246.26,28.1H16.95c-1.94,0-3.52,1.58-3.52,3.52v16.81c0,1.94,1.58,3.52,3.52,3.52h27.89
			c-1.16,1.15-2.84,2.52-4.13,3.57C34,61.03,23.84,69.34,23.84,85.72v16.79c0,0.93,0.37,1.83,1.03,2.49
			c0.66,0.66,1.56,1.03,2.49,1.03l16.91,0l199.37,0l0,0l2.61,0c5.26,0,9.54-4.28,9.54-9.54V37.63
			C255.79,32.51,251.69,28.1,246.26,28.1z"/>
		<path class="st1" d="M19.02,33.69v12.67h32.77v3.85c0,3.49-3.32,6.21-7.53,9.65c-6.6,5.4-14.82,12.13-14.82,25.86v14.72h13.71
			V85.72c0-7.94,5.45-12.58,11.21-17.49c5.52-4.7,11.23-9.56,11.23-17.45V33.69H19.02z"/>
		<g>
			<path d="M77.58,45.19h-3.74l-0.63,1.98h-2.57l3.55-10.26h3.09l3.53,10.26h-2.6L77.58,45.19z M76.9,43.08l-1.19-3.74l-1.19,3.74
				H76.9z"/>
			<path d="M81.86,36.91h2.17l3.77,5.89v-5.89h2.51v10.26h-2.13l-3.82-5.84v5.84h-2.5V36.91z M88.77,33.8c0,1.75-0.6,2.14-1.66,2.14
				c-0.97,0-1.46-0.68-1.89-0.68c-0.29,0-0.32,0.14-0.36,0.56H83.4c0-1.75,0.6-2.14,1.66-2.14c0.97,0,1.46,0.68,1.89,0.68
				c0.29,0,0.32-0.14,0.36-0.56H88.77z"/>
			<path d="M91.97,42.04c0-3.95,1.28-5.28,4.48-5.28c3.21,0,4.48,1.33,4.48,5.28c0,3.95-1.28,5.28-4.48,5.28
				C93.25,47.32,91.97,45.99,91.97,42.04z M98.4,42.04c0-2.05-0.35-2.93-1.95-2.93c-1.58,0-1.95,0.88-1.95,2.93
				c0,2.05,0.36,2.94,1.95,2.94C98.05,44.98,98.4,44.09,98.4,42.04z"/>
			<path d="M102.17,46.84V44.5c0.53,0.18,1.71,0.57,3.12,0.57c1.27,0,1.71-0.17,1.71-0.83c0-0.54-0.29-0.72-1.09-1.06l-1.98-0.82
				c-1.27-0.53-1.92-1.19-1.92-2.73c0-1.96,0.83-2.88,4-2.88c1.36,0,2.45,0.21,3,0.39v2.29c-0.53-0.2-1.75-0.47-2.99-0.47
				c-1.34,0-1.52,0.2-1.52,0.65c0,0.48,0.27,0.66,1.25,1.06l1.36,0.54c1.86,0.74,2.37,1.43,2.37,2.96c0,2.29-1.19,3.14-4.15,3.14
				C103.79,47.32,102.91,47.08,102.17,46.84z"/>
			<path d="M122.81,42.04c0,4.17-1.83,5.13-4.65,5.13h-3.74V36.91h3.74C120.99,36.91,122.81,37.87,122.81,42.04z M120.28,42.04
				c0-1.86-0.38-2.84-2.08-2.84h-1.27v5.67h1.27C119.9,44.87,120.28,43.89,120.28,42.04z"/>
			<path d="M131.75,44.87l-0.48,2.29h-6.79V36.91h7.02v2.29h-4.51v1.67h4.26v2.2h-4.26v1.8H131.75z"/>
			<path d="M136.41,42.02c0-4.04,1.57-5.27,4.9-5.27c1.24,0,2.04,0.09,3.09,0.3v2.38c-0.87-0.21-1.81-0.33-2.7-0.33
				c-2.16,0-2.76,0.68-2.76,2.91c0,2.34,0.68,2.93,2.22,2.93c0.45,0,0.83-0.03,1.21-0.14v-2.93l2.47-0.63v5.52
				c-1.52,0.39-2.5,0.54-3.58,0.54C138.02,47.32,136.41,46.1,136.41,42.02z"/>
			<path d="M152.54,45.19h-3.74l-0.63,1.98h-2.57l3.55-10.26h3.09l3.53,10.26h-2.6L152.54,45.19z M151.86,43.08l-1.19-3.74
				l-1.19,3.74H151.86z"/>
			<path d="M165.48,47.17h-2.85l-2.07-3.32h-1.24v3.32h-2.5V36.91H161c2.32,0,3.89,0.42,3.89,3.38c0,2.01-0.84,2.78-1.9,3.14
				L165.48,47.17z M162.36,40.44c0-1-0.35-1.24-1.46-1.24h-1.57v2.43h1.57C162,41.63,162.36,41.45,162.36,40.44z"/>
			<path d="M172.67,45.19h-3.74l-0.63,1.98h-2.57l3.55-10.26h3.09l3.53,10.26h-2.6L172.67,45.19z M171.99,43.08l-1.19-3.74
				l-1.19,3.74H171.99z"/>
			<path d="M176.95,36.91h2.17l3.77,5.89v-5.89h2.51v10.26h-2.13l-3.82-5.84v5.84h-2.5V36.91z"/>
			<path d="M189.49,39.2h-2.88v-2.29h8.5l-0.42,2.29h-2.69v7.97h-2.51V39.2z"/>
			<path d="M197.38,33.74h2.54L198.19,36h-2.04L197.38,33.74z M196.16,36.91h2.5v10.26h-2.5V36.91z"/>
			<path d="M206.66,45.19h-3.74l-0.63,1.98h-2.57l3.55-10.26h3.09l3.53,10.26h-2.6L206.66,45.19z M205.98,43.08l-1.19-3.74
				l-1.19,3.74H205.98z"/>
		</g>
		<g>
			<path d="M60.56,93.22c0,5.86-2.57,7.22-6.54,7.22h-5.26V86h5.26C57.99,86,60.56,87.36,60.56,93.22z M56.99,93.22
				c0-2.61-0.53-3.99-2.93-3.99h-1.78v7.98h1.78C56.46,97.21,56.99,95.83,56.99,93.22z"/>
			<path d="M72.78,97.21l-0.68,3.23h-9.55V86h9.87v3.23h-6.35v2.36h5.99v3.1h-5.99v2.53H72.78z"/>
			<path d="M78.28,89.23v3.06h5.84l-0.64,3.23h-5.2v4.92h-3.52V86h9.87v3.23H78.28z"/>
			<path d="M96.83,97.21l-0.68,3.23H86.6V86h9.87v3.23h-6.35v2.36h5.99v3.1h-5.99v2.53H96.83z"/>
			<path d="M98.8,86h3.06l5.31,8.28V86h3.52v14.43h-2.99l-5.37-8.21v8.21H98.8V86z"/>
			<path d="M112.72,99.97v-3.29c0.74,0.25,2.4,0.81,4.39,0.81c1.78,0,2.4-0.23,2.4-1.17c0-0.76-0.4-1.02-1.53-1.49l-2.78-1.15
				c-1.78-0.74-2.7-1.68-2.7-3.84c0-2.76,1.17-4.05,5.62-4.05c1.91,0,3.44,0.3,4.22,0.55v3.23c-0.74-0.28-2.46-0.66-4.2-0.66
				c-1.89,0-2.14,0.28-2.14,0.91c0,0.68,0.38,0.93,1.76,1.49l1.91,0.76c2.61,1.04,3.33,2.02,3.33,4.16c0,3.23-1.68,4.42-5.84,4.42
				C114.99,100.65,113.76,100.31,112.72,99.97z"/>
			<path d="M133.22,97.66h-5.26l-0.89,2.78h-3.61L128.45,86h4.35l4.97,14.43h-3.65L133.22,97.66z M132.27,94.68l-1.68-5.26
				l-1.68,5.26H132.27z"/>
			<path d="M151.3,97.66h-5.26l-0.89,2.78h-3.61L146.53,86h4.35l4.97,14.43h-3.65L151.3,97.66z M150.35,94.68l-1.68-5.26L147,94.68
				H150.35z"/>
			<path d="M173.02,93.22c0,5.86-2.57,7.22-6.54,7.22h-5.26V86h5.26C170.45,86,173.02,87.36,173.02,93.22z M169.45,93.22
				c0-2.61-0.53-3.99-2.93-3.99h-1.78v7.98h1.78C168.92,97.21,169.45,95.83,169.45,93.22z"/>
			<path d="M185.24,97.21l-0.68,3.23h-9.55V86h9.87v3.23h-6.35v2.36h5.99v3.1h-5.99v2.53H185.24z"/>
			<path d="M190.73,89.23v3.06h5.84l-0.64,3.23h-5.2v4.92h-3.52V86h9.87v3.23H190.73z"/>
			<path d="M209.28,97.21l-0.68,3.23h-9.55V86h9.87v3.23h-6.35v2.36h5.99v3.1h-5.99v2.53H209.28z"/>
			<path d="M211.26,86h3.06l5.31,8.28V86h3.52v14.43h-2.99l-5.37-8.21v8.21h-3.52V86z"/>
			<path d="M225.18,99.97v-3.29c0.74,0.25,2.4,0.81,4.39,0.81c1.78,0,2.4-0.23,2.4-1.17c0-0.76-0.4-1.02-1.53-1.49l-2.78-1.15
				c-1.78-0.74-2.7-1.68-2.7-3.84c0-2.76,1.17-4.05,5.63-4.05c1.91,0,3.44,0.3,4.22,0.55v3.23c-0.74-0.28-2.46-0.66-4.2-0.66
				c-1.89,0-2.14,0.28-2.14,0.91c0,0.68,0.38,0.93,1.76,1.49l1.91,0.76c2.61,1.04,3.33,2.02,3.33,4.16c0,3.23-1.68,4.42-5.84,4.42
				C227.45,100.65,226.22,100.31,225.18,99.97z"/>
			<path d="M245.68,97.66h-5.26l-0.89,2.78h-3.61L240.9,86h4.35l4.97,14.43h-3.65L245.68,97.66z M244.72,94.68l-1.68-5.26
				l-1.68,5.26H244.72z"/>
		</g>
		<g>
			<path class="st1" d="M222.85,47.17H220l-2.07-3.32h-1.24v3.32h-2.5V36.91h4.18c2.32,0,3.89,0.42,3.89,3.38
				c0,2.01-0.84,2.78-1.9,3.14L222.85,47.17z M219.73,40.44c0-1-0.35-1.24-1.46-1.24h-1.57v2.43h1.57
				C219.36,41.63,219.73,41.45,219.73,40.44z"/>
			<path class="st1" d="M231.34,44.87l-0.48,2.29h-6.79V36.91h7.02v2.29h-4.51v1.67h4.26v2.2h-4.26v1.8H231.34z"/>
			<path class="st1" d="M238.95,45.19h-3.74l-0.63,1.98h-2.57l3.55-10.26h3.09l3.53,10.26h-2.6L238.95,45.19z M238.27,43.08
				l-1.19-3.74l-1.19,3.74H238.27z"/>
			<path class="st1" d="M243.23,36.91h2.5v7.97h4.45l-0.45,2.29h-6.5V36.91z"/>
		</g>
		<path class="st1" d="M246.51,54.67H70.64c-1.7,7.53-6.83,12.26-11.77,16.49c-3.62,3.09-6.4,5.35-8.06,7.52l195.7,0
			c1.86,0,3.69-1.47,3.69-3.69V58.37C250.2,56.18,248.37,54.67,246.51,54.67z"/>
		<g>
			<path class="st0" d="M79.78,74.5l-5.27-7.18v7.18h-3.87V58.65h3.87v7.34l4.87-7.34h4.73l-5.67,7.97l6.09,7.88H79.78z"/>
			<path class="st0" d="M85.89,58.65h4.94l3.66,5.85l3.54-5.85h5.01V74.5h-3.87V63.43l-4.69,7.18l-4.73-7.18V74.5h-3.87V58.65z"/>
			<path class="st0" d="M105.57,73.99v-3.61c0.82,0.28,2.63,0.89,4.83,0.89c1.96,0,2.63-0.26,2.63-1.28c0-0.84-0.44-1.12-1.68-1.63
				l-3.05-1.26c-1.96-0.82-2.96-1.84-2.96-4.22c0-3.03,1.28-4.45,6.18-4.45c2.1,0,3.78,0.33,4.64,0.61v3.54
				c-0.82-0.3-2.7-0.72-4.62-0.72c-2.07,0-2.35,0.3-2.35,1c0,0.75,0.42,1.03,1.94,1.63l2.1,0.84c2.87,1.14,3.66,2.21,3.66,4.57
				c0,3.54-1.84,4.85-6.41,4.85C108.06,74.74,106.71,74.36,105.57,73.99z"/>
			<path class="st0" d="M124.32,58.65h3.87V74.5h-3.87V58.65z"/>
			<path class="st0" d="M131.24,58.65h3.87v12.31h6.88l-0.7,3.54h-10.05V58.65z"/>
			<path class="st0" d="M143.83,58.65h3.87V74.5h-3.87V58.65z"/>
			<path class="st0" d="M150.76,58.65h4.94l3.66,5.85l3.54-5.85h5.01V74.5h-3.87V63.43l-4.69,7.18l-4.73-7.18V74.5h-3.87V58.65z"/>
			<path class="st0" d="M170.98,58.65h3.87V74.5h-3.87V58.65z"/>
			<path class="st0" d="M181.07,62.19h-4.45v-3.54h13.13l-0.65,3.54h-4.15V74.5h-3.87V62.19z"/>
			<path class="st0" d="M198.98,71.45h-5.78l-0.98,3.05h-3.96l5.48-15.85h4.78l5.46,15.85h-4.01L198.98,71.45z M197.93,68.19
				l-1.84-5.78l-1.84,5.78H197.93z"/>
			<path class="st0" d="M218.47,66.58c0,6.44-2.82,7.93-7.18,7.93h-5.78V58.65h5.78C215.65,58.65,218.47,60.14,218.47,66.58z
				 M214.56,66.58c0-2.87-0.58-4.38-3.22-4.38h-1.96v8.77h1.96C213.97,70.96,214.56,69.45,214.56,66.58z"/>
			<path class="st0" d="M220.36,66.58c0-6.11,1.98-8.16,6.92-8.16c4.97,0,6.92,2.05,6.92,8.16c0,6.11-1.98,8.16-6.92,8.16
				S220.36,72.69,220.36,66.58z M230.3,66.58c0-3.17-0.54-4.52-3.01-4.52c-2.45,0-3.01,1.35-3.01,4.52c0,3.17,0.56,4.55,3.01,4.55
				C229.76,71.12,230.3,69.75,230.3,66.58z"/>
			<path class="st0" d="M236.03,73.99v-3.61c0.82,0.28,2.63,0.89,4.83,0.89c1.96,0,2.63-0.26,2.63-1.28c0-0.84-0.44-1.12-1.68-1.63
				l-3.05-1.26c-1.96-0.82-2.96-1.84-2.96-4.22c0-3.03,1.28-4.45,6.18-4.45c2.1,0,3.78,0.33,4.64,0.61v3.54
				c-0.82-0.3-2.7-0.72-4.62-0.72c-2.07,0-2.35,0.3-2.35,1c0,0.75,0.42,1.03,1.94,1.63l2.1,0.84c2.87,1.14,3.66,2.21,3.66,4.57
				c0,3.54-1.84,4.85-6.41,4.85C238.53,74.74,237.18,74.36,236.03,73.99z"/>
		</g>
	</g>
	<g>
		<path class="st0" d="M255.35,25.91c0-2.9,1.5-4.02,4.11-4.02c2.63,0,4.12,1.12,4.12,4.02c0,2.87-1.34,4-4.12,4
			C256.68,29.92,255.35,28.78,255.35,25.91z M262.65,25.91c0-2.23-0.96-3.16-3.2-3.16c-2.23,0-3.18,0.88-3.18,3.16
			c0,2.2,0.71,3.14,3.18,3.14C261.95,29.06,262.65,28.11,262.65,25.91z M259.41,26.29h-0.46v1.32h-0.93v-3.78h1.6
			c1.08,0,1.44,0.38,1.44,1.22c0,0.69-0.34,1-0.72,1.13l0.96,1.43h-1.05L259.41,26.29z M259.49,25.53c0.41,0,0.58-0.05,0.58-0.45
			c0-0.39-0.16-0.46-0.57-0.46h-0.57v0.91H259.49z"/>
	</g>
</g>
</svg>
