<svg xmlns="http://www.w3.org/2000/svg" viewBox="0 0 841.89 69.73"><defs><style>.cls-1{fill:#fff;}</style></defs><title>XPANDER CROSS_Logo_190617_master</title><g id="XPANDER_CROSS" data-name="XPANDER CROSS"><path class="cls-1" d="M164.3,331.53l38.32-40c11-11.47,13.8-12.29,19.77-12.64l2.39-.09c7.9-.09,10.79,2.28,11.16,15.07L237,331.53H220.09l-.82-27.66c-.17-5.73-.76-7.67-5.76-2.5l-16.8,18.1h18.47l.36,12.06Z" transform="translate(0 -262.77)"/><path class="cls-1" d="M162.72,289.64c8,0,12.12.38,9.28,4.91a11,11,0,0,1-2.19,2.23c-2.14,1.47-4.57,1.62-10.68,1.62H127L113.7,331.53h18.39l8.66-21.47,13.83,0c10,0,16.87,0,23.63-3.08a18.07,18.07,0,0,0,9.82-9.9c2.14-5.28,2.84-10.91-1.78-14.46-4.43-3.4-10-4.29-23.45-4.47-9.33-.05-28.51-.05-28.51-.05l-4.65,11.56Z" transform="translate(0 -262.77)"/><path class="cls-1" d="M329.18,319.47h0" transform="translate(0 -262.77)"/><path class="cls-1" d="M369.12,283c-2.33-1.87-5.17-2.87-10-3.82a78.31,78.31,0,0,0-14.45-1.07h-18.9l-22,53.45h21.7c14.24,0,21-.41,28.29-3.61,6.14-2.7,9.43-6.82,12.27-12.09h0a78,78,0,0,0,7.06-18.09v0C374.63,291.25,373.78,286.7,369.12,283Zm-15,21.22v0a52.19,52.19,0,0,1-3.64,7.19l-.12.17c-4.13,6.72-7.43,7.88-21.2,7.9h-3.37L338,289.61h5.11c4,0,6.78.1,8.93.87C356.72,292.16,357.39,296.3,354.14,304.19Z" transform="translate(0 -262.77)"/><path class="cls-1" d="M89.76,299.27h0l57.55-36.48-32.94,0-33,21.16L69.52,262.79H41.7l19,32.38L0,331.53H33.15L68.28,310.3l12.57,21.24H109L89.76,299.27Z" transform="translate(0 -262.77)"/><path class="cls-1" d="M286.93,311.11l-9.28-28.2c-.76-2.3-2.19-4.34-5-4.64a27.6,27.6,0,0,0-3.21-.19h-7.18l-21.7,53.45h17l11.87-29.1,9,29.1h17.27l21.63-53.45H300.26Z" transform="translate(0 -262.77)"/><polygon class="cls-1" points="366.25 68.75 418.79 68.75 423.69 56.69 389.37 56.69 393.19 47.28 424.04 47.28 424.14 47.07 429.06 35.63 397.64 35.63 401.48 26.86 432.05 26.86 437.03 15.31 387.95 15.31 366.25 68.75"/><path class="cls-1" d="M499.45,296.88c2.16-5.3,2-10.91-1.72-13.9s-8.75-4.64-22.8-4.73l-29.49-.17-4.66,11.56h32.89c4.81,0,8.24.15,9.62,1.23.94.74,1,1.66-.12,3.5a10.83,10.83,0,0,1-2.22,2.25c-2.15,1.47-4.65,1.78-10.82,1.78H438.24L424.9,331.53h18.38L452,310.06h12.68l7.67,21.47h18.22l0,0s-8.05-21.92-8-21.92a32.29,32.29,0,0,0,7.5-2.45C496.57,304.09,498.26,299.79,499.45,296.88Z" transform="translate(0 -262.77)"/><path class="cls-1" d="M753.38,315.26a6.83,6.83,0,0,1-1.22,2.38c-1.1,1.64-4.18,1.81-6.24,1.81h-30l-5.79,12.06h26.52c4.1,0,7.31,0,11.39-.15,11.57,0,16.06-3.51,18.6-6.63a24.81,24.81,0,0,0,3.63-6.37,10.65,10.65,0,0,0,1-3.37c.58-6.15-3.55-8-7.61-9.79-5.08-2.18-16.92-7.85-19.78-9.14-3.74-1.68.65-5.15,1.13-5.51.77-.57,1.57-.94,4.11-.94h27.07c1.89-3.89,3.7-7.71,5.56-11.55H749.29c-5,0-10.7.07-14.22,1.83-3.06,1.53-4.6,2.52-8.07,7-4.48,5.8-3.41,7.88-3,9.79.67,3.05,7.5,6.64,9.25,7.41,8.28,3.53,15.41,7.36,16.49,7.88C751.79,313,753.67,313.56,753.38,315.26Z" transform="translate(0 -262.77)"/><path class="cls-1" d="M813.56,315.26a7.13,7.13,0,0,1-1.23,2.38c-1.09,1.64-4.17,1.81-6.23,1.81h-30l-5.79,12.06h26.52c4.1,0,7.31,0,11.39-.15,11.58,0,16.07-3.51,18.6-6.63a25.15,25.15,0,0,0,3.64-6.37,10.6,10.6,0,0,0,.95-3.37c.58-6.15-3.54-8-7.6-9.79-5.09-2.18-16.93-7.85-19.79-9.14-3.73-1.68.65-5.15,1.13-5.51.77-.57,1.58-.94,4.11-.94h27.08c1.88-3.89,3.7-7.71,5.55-11.55H809.46c-5,0-10.7.07-14.21,1.83-3.06,1.53-4.6,2.52-8.07,7-4.48,5.8-3.42,7.88-3,9.79.67,3.05,7.5,6.64,9.25,7.41,8.27,3.53,15.4,7.36,16.48,7.88C812,313,813.84,313.56,813.56,315.26Z" transform="translate(0 -262.77)"/><path class="cls-1" d="M588.39,278.07s-23.54,0-24.34,0c-2.2,0-5.68.08-8.52.39-8.36.91-15.23,2.8-21.14,9.37-8.33,9.25-10.59,16.7-11.59,22.92a46.45,46.45,0,0,0-.4,7.43,11.11,11.11,0,0,0,9.58,11.3,46.91,46.91,0,0,0,9.89,1.76c3,.2,7.07.33,9.42.33,8.42,0,20.07-.05,20.07-.05l5.32-12.07-21.85-.15c-2.33,0-4.64-.12-6.46-.24a28.82,28.82,0,0,1-5.44-.68,7.88,7.88,0,0,1-3.31-1.5c-1.5-1.19-2-2.27-1.81-5.22a21,21,0,0,1,1.14-5.37,22.66,22.66,0,0,1,4.39-8.21c5.57-6.82,9.13-7.8,15.76-8.31,1-.08,4-.15,5.43-.15h18.63Z" transform="translate(0 -262.77)"/><path class="cls-1" d="M716.87,293.05c-.67-10.74-4.85-13.29-8.93-14.17a111,111,0,0,0-16.7-1.58,102.84,102.84,0,0,0-11.1.39c-8.09.8-11.27,2.16-17.23,9.18a57.74,57.74,0,0,0-6.22,9.86A39.42,39.42,0,0,0,653,320c1.3,8.89,3.92,9.69,8.11,10.8a43.43,43.43,0,0,0,5,.94,84.74,84.74,0,0,0,12.2.77c3.6,0,7.57-.13,11.77-.55a53.5,53.5,0,0,0,5.49-1c5.68-1.34,6.72-2.16,9.8-5.66a61.72,61.72,0,0,0,7.08-10.81A38.88,38.88,0,0,0,716.87,293.05Zm-20.08,19.38c-3.8,6.12-6.75,7.25-11.73,7.82a56.37,56.37,0,0,1-11.58-.1c-5.14-.44-5.86-3.13-6-5.83,0,0-.53-8.54,3.44-15.7,3.28-5.89,5.44-8.76,12.45-9.28a60.74,60.74,0,0,1,12.18.27c5.09.86,6.16,2.69,6.29,6.33A36.68,36.68,0,0,1,696.79,312.43Z" transform="translate(0 -262.77)"/><path class="cls-1" d="M652.89,295.93c2.16-5.3,1.41-10.41-2.3-13.4s-8.58-4.21-22.63-4.3l-28.44-.17-4.88,11.55H626.7c4.82,0,8.24.16,9.62,1.24.94.74,1,1.66-.12,3.5A10.88,10.88,0,0,1,634,296.6c-2.16,1.47-4.66,1.78-10.83,1.78H592.32L579,331.51h18.39L606.19,310h11.63l7.57,21.47h18.22v-.05s-8-21.92-7.94-21.92a33.33,33.33,0,0,0,7.5-2.66C649.69,303.86,651.7,298.85,652.89,295.93Z" transform="translate(0 -262.77)"/></g></svg>